<svg width="33" height="33" viewBox="0 0 33 33" fill="none" xmlns="http://www.w3.org/2000/svg">
<path fill-rule="evenodd" clip-rule="evenodd" d="M14.5263 3.08008H17.6782C19.9263 3.08517 20.4425 3.10497 21.6353 3.15939C23.0638 3.22454 24.0393 3.45142 24.8929 3.7832C25.7754 4.1261 26.5238 4.58498 27.2699 5.33104C28.016 6.07716 28.4749 6.82557 28.8178 7.70806C29.1496 8.56168 29.3764 9.53723 29.4416 10.9656C29.5047 12.3493 29.5213 12.8225 29.5223 16.1448V16.8528C29.5213 20.175 29.5047 20.6481 29.4416 22.0318C29.3764 23.4602 29.1496 24.4358 28.8178 25.2894C28.4749 26.1719 28.016 26.9203 27.2699 27.6664C26.5238 28.4125 25.7754 28.8714 24.8929 29.2143C24.0393 29.546 23.0638 29.7729 21.6353 29.8381C20.2517 29.9012 19.7785 29.9178 16.4563 29.9188H15.7483C12.426 29.9178 11.9528 29.9012 10.5692 29.8381C9.14075 29.7729 8.16519 29.546 7.31157 29.2143C6.42908 28.8714 5.68068 28.4125 4.93456 27.6664C4.1885 26.9203 3.72962 26.1719 3.38671 25.2894C3.05494 24.4358 2.82806 23.4602 2.76291 22.0318C2.70848 20.839 2.68868 20.3228 2.68359 18.0747V14.9228C2.68868 12.6747 2.70848 12.1585 2.76291 10.9656C2.82806 9.53723 3.05494 8.56168 3.38671 7.70806C3.72962 6.82557 4.1885 6.07716 4.93456 5.33104C5.68068 4.58498 6.42908 4.1261 7.31157 3.7832C8.16519 3.45142 9.14075 3.22454 10.5692 3.15939C11.762 3.10497 12.2782 3.08517 14.5263 3.08008H17.6782H14.5263ZM17.0867 5.49711H15.1179C12.4241 5.49991 11.953 5.51681 10.6794 5.57492C9.37093 5.63458 8.66035 5.85321 8.18746 6.03699C7.56104 6.28044 7.11399 6.57125 6.64441 7.04089C6.17477 7.51047 5.88396 7.95753 5.64051 8.58394C5.45672 9.05683 5.2381 9.76742 5.17844 11.0759C5.12033 12.3494 5.10343 12.8206 5.10063 15.5144V17.4831C5.10343 20.1768 5.12033 20.648 5.17844 21.9216C5.2381 23.2301 5.45672 23.9406 5.64051 24.4135C5.88396 25.0399 6.17482 25.487 6.64441 25.9566C7.11399 26.4262 7.56104 26.717 8.18746 26.9605C8.66035 27.1443 9.37093 27.3629 10.6794 27.4226C12.0943 27.4871 12.5187 27.5008 16.1023 27.5008C19.6858 27.5008 20.1102 27.4871 21.5251 27.4226C22.8336 27.3629 23.5442 27.1443 24.017 26.9605C24.6435 26.717 25.0905 26.4262 25.5601 25.9566C26.0297 25.487 26.3205 25.0399 26.564 24.4135C26.7478 23.9406 26.9664 23.2301 27.0261 21.9216C27.0906 20.5065 27.1043 20.082 27.1043 16.4988C27.1043 12.9154 27.0906 12.491 27.0261 11.0759C26.9664 9.76742 26.7478 9.05683 26.564 8.58394C26.3205 7.95753 26.0297 7.51047 25.5601 7.04089C25.0905 6.57125 24.6435 6.28044 24.017 6.03699C23.5442 5.85321 22.8336 5.63458 21.5251 5.57492C20.2515 5.51681 19.7804 5.49991 17.0867 5.49711ZM16.1023 9.78868C19.8081 9.78868 22.8123 12.7929 22.8123 16.4988C22.8123 20.2046 19.8081 23.2088 16.1023 23.2088C12.3964 23.2088 9.3922 20.2046 9.3922 16.4988C9.3922 12.7929 12.3964 9.78868 16.1023 9.78868ZM16.1023 12.1431C13.6967 12.1431 11.7466 14.0932 11.7466 16.4988C11.7466 18.9043 13.6967 20.8544 16.1023 20.8544C18.5078 20.8544 20.4579 18.9043 20.4579 16.4988C20.4579 14.0932 18.5078 12.1431 16.1023 12.1431ZM23.3714 7.552C24.2979 7.552 25.049 8.30307 25.049 9.22954C25.049 10.156 24.2979 10.907 23.3714 10.907C22.445 10.907 21.694 10.156 21.694 9.22954C21.694 8.30307 22.445 7.552 23.3714 7.552Z" fill="#FFFCF5"/>
</svg>
