<svg width="207" height="131" viewBox="0 0 207 131" fill="none" xmlns="http://www.w3.org/2000/svg">
<path d="M45.8624 45.7316L6.43192 2.08531H0V103H20.2745V47.5386L45.8624 74.2268L71.4502 47.5386L71.3104 103H91.5849V2.08531H85.2928L45.8624 45.7316Z" fill="#231B19"/>
<path d="M71.3104 103L93.962 103L97.877 92.2966H131.015L135.07 103L157.083 103L115.495 0H113.398L71.3104 103ZM105.148 73.6705L114.516 47.8163L123.605 73.6705H105.148Z" fill="#231B19"/>
<path d="M207 103V3.61432H187.005V43.3686H157.083V3.61432H137.088V103H157.083V63.2457H187.005V103H207Z" fill="#231B19"/>
<path d="M17.1391 122H15.3791V109.6L10.8391 122H8.91906L4.29906 109.68V122H2.53906V108.08H5.61906L9.91906 119.54L14.1191 108.08H17.1391V122ZM29.1984 122L28.9184 120.5C28.3984 121.073 27.8318 121.507 27.2184 121.8C26.6184 122.093 25.9384 122.24 25.1784 122.24C24.2318 122.24 23.4651 121.973 22.8784 121.44C22.2918 120.893 21.9984 120.173 21.9984 119.28C21.9984 118.12 22.4651 117.267 23.3984 116.72C24.3318 116.173 25.5318 115.9 26.9984 115.9C27.5318 115.9 28.1184 115.933 28.7584 116V115.28C28.7584 114.56 28.5584 113.987 28.1584 113.56C27.7718 113.12 27.2651 112.9 26.6384 112.9C25.8918 112.9 25.2118 113 24.5984 113.2C23.9984 113.4 23.3784 113.713 22.7384 114.14V112.44C23.3651 112.027 24.0051 111.74 24.6584 111.58C25.3118 111.407 26.0584 111.32 26.8984 111.32C27.9651 111.32 28.8318 111.66 29.4984 112.34C30.1784 113.02 30.5184 113.92 30.5184 115.04V119.68L30.9584 122H29.1984ZM25.5384 120.76C26.1784 120.76 26.7518 120.627 27.2584 120.36C27.7651 120.093 28.2651 119.707 28.7584 119.2V117.24H26.9184C24.9051 117.24 23.8984 117.887 23.8984 119.18C23.8984 119.66 24.0518 120.047 24.3584 120.34C24.6651 120.62 25.0584 120.76 25.5384 120.76ZM37.61 111.56H40.49V113.08H37.61V119.06C37.61 119.553 37.7167 119.953 37.93 120.26C38.1567 120.553 38.4833 120.7 38.91 120.7C39.2033 120.7 39.4633 120.673 39.69 120.62C39.93 120.553 40.1967 120.453 40.49 120.32V121.88C40.1833 122.027 39.89 122.12 39.61 122.16C39.33 122.213 38.99 122.24 38.59 122.24C37.7367 122.24 37.0633 121.967 36.57 121.42C36.09 120.873 35.85 120.147 35.85 119.24V113.08H33.85V111.56H35.85V108.76L37.61 107.84V111.56ZM46.6678 111.56H49.5478V113.08H46.6678V119.06C46.6678 119.553 46.7745 119.953 46.9878 120.26C47.2145 120.553 47.5411 120.7 47.9678 120.7C48.2611 120.7 48.5211 120.673 48.7478 120.62C48.9878 120.553 49.2545 120.453 49.5478 120.32V121.88C49.2411 122.027 48.9478 122.12 48.6678 122.16C48.3878 122.213 48.0478 122.24 47.6478 122.24C46.7945 122.24 46.1211 121.967 45.6278 121.42C45.1478 120.873 44.9078 120.147 44.9078 119.24V113.08H42.9078V111.56H44.9078V108.76L46.6678 107.84V111.56ZM59.0456 111.32C60.0323 111.32 60.779 111.627 61.2856 112.24C61.7923 112.84 62.0456 113.68 62.0456 114.76V122H60.2856V115C60.2856 114.333 60.1456 113.82 59.8656 113.46C59.5856 113.087 59.159 112.9 58.5856 112.9C57.9323 112.9 57.379 113.007 56.9256 113.22C56.4856 113.433 55.9923 113.78 55.4456 114.26V122H53.6856V106.92H55.4456V112.86C56.0323 112.327 56.5856 111.94 57.1056 111.7C57.639 111.447 58.2856 111.32 59.0456 111.32ZM75.9486 117.36H68.5486C68.6553 118.387 68.9953 119.207 69.5686 119.82C70.1553 120.42 70.9486 120.72 71.9486 120.72C72.5486 120.72 73.1286 120.6 73.6886 120.36C74.2619 120.107 74.8419 119.74 75.4286 119.26H75.5086V121.02C74.9219 121.447 74.3419 121.76 73.7686 121.96C73.1953 122.147 72.5819 122.24 71.9286 122.24C70.8619 122.24 69.9353 122.007 69.1486 121.54C68.3619 121.073 67.7553 120.427 67.3286 119.6C66.9153 118.76 66.7086 117.8 66.7086 116.72C66.7086 115.693 66.8953 114.773 67.2686 113.96C67.6553 113.133 68.2019 112.487 68.9086 112.02C69.6153 111.553 70.4419 111.32 71.3886 111.32C72.3486 111.32 73.1686 111.56 73.8486 112.04C74.5419 112.507 75.0619 113.153 75.4086 113.98C75.7686 114.807 75.9486 115.74 75.9486 116.78V117.36ZM71.4086 112.78C70.5819 112.78 69.9219 113.08 69.4286 113.68C68.9353 114.28 68.6419 115.053 68.5486 116H74.1286C74.0353 115.027 73.7619 114.247 73.3086 113.66C72.8686 113.073 72.2353 112.78 71.4086 112.78ZM94.9508 111.56L91.6708 122H89.3908L86.9308 113.98L84.5108 122H82.2308L78.9508 111.56H80.7508L83.4708 120.3L86.0708 111.56H87.8708L90.5108 120.3L93.2308 111.56H94.9508ZM113.963 118.32H107.263L105.843 122H104.083L109.443 108.08H111.883L117.243 122H115.383L113.963 118.32ZM113.383 116.82L110.623 109.62L107.843 116.82H113.383ZM139.273 108.08V122H137.513V115.56H130.033V122H128.273V108.08H130.033V113.92H137.513V108.08H139.273ZM152 122L151.72 120.54C151.106 121.113 150.513 121.54 149.94 121.82C149.38 122.1 148.72 122.24 147.96 122.24C147.013 122.24 146.273 121.927 145.74 121.3C145.22 120.673 144.96 119.84 144.96 118.8V111.56H146.72V118.56C146.72 119.2 146.866 119.713 147.16 120.1C147.453 120.473 147.873 120.66 148.42 120.66C149.046 120.66 149.593 120.547 150.06 120.32C150.54 120.093 151.04 119.753 151.56 119.3V111.56H153.32V119.68L153.76 122H152ZM167.663 111.54L167.223 113.86V121.32C167.223 123.08 166.816 124.447 166.003 125.42C165.189 126.393 163.983 126.88 162.383 126.88C161.489 126.88 160.756 126.793 160.183 126.62C159.609 126.447 159.016 126.1 158.403 125.58V123.8C159.056 124.347 159.669 124.72 160.243 124.92C160.816 125.133 161.529 125.24 162.383 125.24C163.409 125.24 164.176 124.913 164.683 124.26C165.203 123.62 165.463 122.72 165.463 121.56V121.04C165.023 121.333 164.576 121.547 164.123 121.68C163.683 121.8 163.156 121.86 162.543 121.86C161.036 121.86 159.896 121.407 159.123 120.5C158.363 119.593 157.983 118.32 157.983 116.68C157.983 114.987 158.383 113.673 159.183 112.74C159.983 111.793 161.169 111.32 162.743 111.32C163.316 111.32 163.809 111.38 164.223 111.5C164.649 111.607 165.163 111.793 165.763 112.06L165.903 111.54H167.663ZM162.563 120.24C163.149 120.24 163.663 120.167 164.103 120.02C164.543 119.873 164.996 119.64 165.463 119.32V113.28C165.036 113.133 164.629 113.033 164.243 112.98C163.869 112.913 163.436 112.88 162.943 112.88C161.903 112.88 161.129 113.213 160.623 113.88C160.129 114.547 159.883 115.473 159.883 116.66C159.883 119.047 160.776 120.24 162.563 120.24ZM177.695 111.32C178.682 111.32 179.428 111.627 179.935 112.24C180.442 112.84 180.695 113.68 180.695 114.76V122H178.935V115C178.935 114.333 178.795 113.82 178.515 113.46C178.235 113.087 177.808 112.9 177.235 112.9C176.582 112.9 176.028 113.007 175.575 113.22C175.135 113.433 174.642 113.78 174.095 114.26V122H172.335V106.92H174.095V112.86C174.682 112.327 175.235 111.94 175.755 111.7C176.288 111.447 176.935 111.32 177.695 111.32ZM194.598 117.36H187.198C187.304 118.387 187.644 119.207 188.218 119.82C188.804 120.42 189.598 120.72 190.598 120.72C191.198 120.72 191.778 120.6 192.338 120.36C192.911 120.107 193.491 119.74 194.078 119.26H194.158V121.02C193.571 121.447 192.991 121.76 192.418 121.96C191.844 122.147 191.231 122.24 190.578 122.24C189.511 122.24 188.584 122.007 187.798 121.54C187.011 121.073 186.404 120.427 185.978 119.6C185.564 118.76 185.358 117.8 185.358 116.72C185.358 115.693 185.544 114.773 185.918 113.96C186.304 113.133 186.851 112.487 187.558 112.02C188.264 111.553 189.091 111.32 190.038 111.32C190.998 111.32 191.818 111.56 192.498 112.04C193.191 112.507 193.711 113.153 194.058 113.98C194.418 114.807 194.598 115.74 194.598 116.78V117.36ZM190.058 112.78C189.231 112.78 188.571 113.08 188.078 113.68C187.584 114.28 187.291 115.053 187.198 116H192.778C192.684 115.027 192.411 114.247 191.958 113.66C191.518 113.073 190.884 112.78 190.058 112.78ZM201.8 122.24C201.16 122.24 200.527 122.147 199.9 121.96C199.287 121.76 198.707 121.48 198.16 121.12V119.28C199.373 120.213 200.573 120.68 201.76 120.68C202.453 120.68 203.013 120.54 203.44 120.26C203.867 119.967 204.08 119.58 204.08 119.1C204.08 118.767 203.973 118.493 203.76 118.28C203.56 118.067 203.307 117.9 203 117.78C202.693 117.66 202.253 117.513 201.68 117.34C200.973 117.14 200.387 116.947 199.92 116.76C199.467 116.56 199.08 116.273 198.76 115.9C198.44 115.513 198.28 115.013 198.28 114.4C198.28 113.467 198.633 112.72 199.34 112.16C200.047 111.6 200.973 111.32 202.12 111.32C203.267 111.32 204.307 111.62 205.24 112.22V114C204.72 113.6 204.213 113.313 203.72 113.14C203.24 112.967 202.733 112.88 202.2 112.88C201.533 112.88 201.007 113 200.62 113.24C200.233 113.48 200.04 113.813 200.04 114.24C200.04 114.547 200.14 114.8 200.34 115C200.553 115.2 200.813 115.36 201.12 115.48C201.427 115.6 201.867 115.747 202.44 115.92C203.16 116.133 203.747 116.34 204.2 116.54C204.653 116.727 205.04 117.02 205.36 117.42C205.68 117.807 205.84 118.313 205.84 118.94C205.84 119.58 205.667 120.153 205.32 120.66C204.973 121.153 204.493 121.54 203.88 121.82C203.267 122.1 202.573 122.24 201.8 122.24Z" fill="black"/>
</svg>
