<svg width="207" height="133" viewBox="0 0 207 133" fill="none" xmlns="http://www.w3.org/2000/svg">
<path d="M45.8624 45.7316L6.43192 2.08531H0V103H20.2745V47.5386L45.8624 74.2268L71.4502 47.5386L71.3104 103H91.5849V2.08531H85.2928L45.8624 45.7316Z" fill="#FFFCF5"/>
<path d="M71.3104 103L93.962 103L97.877 92.2966H131.015L135.07 103L157.083 103L115.495 0H113.398L71.3104 103ZM105.148 73.6705L114.516 47.8163L123.605 73.6705H105.148Z" fill="#FFFCF5"/>
<path d="M207 103V3.61432H187.005V43.3686H157.083V3.61432H137.088V103H157.083V63.2457H187.005V103H207Z" fill="#FFFCF5"/>
<path d="M59.0214 121.768C57.7947 122.696 56.3227 123.16 54.6054 123.16C52.8987 123.16 51.5227 122.611 50.4774 121.512C49.432 120.413 48.9094 119.043 48.9094 117.4C48.9094 115.757 49.4107 114.392 50.4134 113.304C51.4267 112.205 52.7867 111.656 54.4934 111.656C55.2827 111.656 56.072 111.763 56.8614 111.976C57.6507 112.189 58.248 112.408 58.6534 112.632V114.68L58.4774 114.648C58.2107 113.688 57.7467 113.011 57.0854 112.616C56.4347 112.221 55.5707 112.024 54.4934 112.024C53.128 112.024 52.088 112.52 51.3734 113.512C50.6587 114.493 50.3014 115.779 50.3014 117.368C50.3014 118.957 50.68 120.243 51.4374 121.224C52.1947 122.205 53.256 122.696 54.6214 122.696C55.6027 122.696 56.4187 122.579 57.0694 122.344C57.7307 122.099 58.3814 121.747 59.0214 121.288V121.768ZM60.14 119.224C60.14 118.104 60.46 117.165 61.1 116.408C61.74 115.651 62.6093 115.272 63.708 115.272C64.8067 115.272 65.692 115.651 66.364 116.408C67.036 117.165 67.372 118.104 67.372 119.224C67.372 120.344 67.0467 121.283 66.396 122.04C65.756 122.787 64.8867 123.16 63.788 123.16C62.6893 123.16 61.804 122.781 61.132 122.024C60.4707 121.267 60.14 120.333 60.14 119.224ZM61.98 121.816C62.4067 122.499 63.0093 122.84 63.788 122.84C64.5667 122.84 65.1533 122.504 65.548 121.832C65.9533 121.16 66.156 120.296 66.156 119.24C66.156 118.173 65.9427 117.299 65.516 116.616C65.0893 115.933 64.4867 115.592 63.708 115.592C62.94 115.592 62.3533 115.933 61.948 116.616C61.5533 117.288 61.356 118.152 61.356 119.208C61.356 120.264 61.564 121.133 61.98 121.816ZM70.8956 117.368C71.077 116.781 71.365 116.285 71.7596 115.88C72.165 115.475 72.7036 115.272 73.3756 115.272C74.0583 115.272 74.629 115.48 75.0876 115.896C75.9196 116.632 76.3356 117.747 76.3356 119.24C76.3356 120.36 75.9943 121.293 75.3116 122.04C74.629 122.787 73.765 123.16 72.7196 123.16C71.9623 123.16 71.3543 123.016 70.8956 122.728V124.616C70.8956 125.256 70.901 125.72 70.9116 126.008C70.933 126.296 70.9916 126.541 71.0876 126.744C71.1943 126.957 71.3276 127.085 71.4876 127.128C71.6583 127.171 71.9143 127.192 72.2556 127.192L72.2876 127.384H68.4156L68.4476 127.192C69.0663 127.192 69.4396 127.053 69.5676 126.776C69.7063 126.509 69.7756 125.789 69.7756 124.616V117.864C69.7756 117.288 69.765 116.877 69.7436 116.632C69.733 116.387 69.6743 116.173 69.5676 115.992C69.4716 115.811 69.3436 115.709 69.1836 115.688C69.0343 115.656 68.789 115.64 68.4476 115.64L68.4156 115.464C69.173 115.336 69.9996 115.272 70.8956 115.272V117.368ZM72.5116 122.696C73.493 122.696 74.181 122.328 74.5756 121.592C74.9383 120.92 75.1196 120.136 75.1196 119.24C75.1196 118.44 75.0023 117.699 74.7676 117.016C74.629 116.643 74.4156 116.344 74.1276 116.12C73.8396 115.885 73.493 115.768 73.0876 115.768C72.693 115.768 72.341 115.912 72.0316 116.2C71.7223 116.477 71.493 116.824 71.3436 117.24C71.045 118.072 70.8956 118.776 70.8956 119.352V121.848C71.2263 122.413 71.765 122.696 72.5116 122.696ZM78.5208 126.36C79.0541 126.36 79.4968 126.152 79.8488 125.736C80.2114 125.331 80.5794 124.669 80.9528 123.752L78.5688 117.736C78.2168 116.84 77.8968 116.264 77.6088 116.008C77.3314 115.752 76.9954 115.624 76.6007 115.624L76.5687 115.432H80.5368L80.5048 115.624C80.1314 115.624 79.8701 115.683 79.7208 115.8C79.5821 115.917 79.5128 116.099 79.5128 116.344C79.5128 116.835 79.7634 117.709 80.2648 118.968L81.4968 122.072L82.7448 118.232C82.9901 117.464 83.1128 116.883 83.1128 116.488C83.1128 115.912 82.7394 115.624 81.9928 115.624L81.9608 115.432H84.9688L84.9368 115.624C84.4994 115.624 84.1901 115.768 84.0088 116.056C83.8381 116.333 83.5128 117.203 83.0328 118.664L81.5928 123.048C81.1234 124.488 80.5741 125.597 79.9448 126.376C79.3154 127.155 78.6594 127.544 77.9768 127.544C77.6674 127.544 77.4114 127.48 77.2088 127.352C77.0061 127.235 76.9047 127.064 76.9047 126.84C76.9047 126.627 76.9688 126.456 77.0968 126.328C77.2354 126.211 77.3794 126.152 77.5288 126.152C77.6888 126.152 77.8648 126.184 78.0568 126.248C78.2488 126.323 78.4034 126.36 78.5208 126.36ZM90.5368 115.192C90.8034 115.192 91.0381 115.251 91.2408 115.368C91.4434 115.485 91.5448 115.645 91.5448 115.848C91.5448 116.051 91.4808 116.211 91.3528 116.328C91.2248 116.445 91.0808 116.504 90.9208 116.504C90.7608 116.504 90.5581 116.435 90.3128 116.296C90.0781 116.157 89.8274 116.088 89.5608 116.088C89.1448 116.088 88.8034 116.472 88.5368 117.24C88.2808 118.008 88.1528 118.899 88.1528 119.912C88.1528 121.277 88.2221 122.104 88.3608 122.392C88.4034 122.488 88.4834 122.579 88.6008 122.664C88.7181 122.739 88.8408 122.781 88.9688 122.792C89.0968 122.803 89.2781 122.808 89.5128 122.808L89.5448 123H85.6568L85.6888 122.808C86.0301 122.808 86.2754 122.792 86.4248 122.76C86.5848 122.717 86.7181 122.584 86.8248 122.36C86.9314 122.136 86.9901 121.859 87.0008 121.528C87.0221 121.187 87.0328 120.648 87.0328 119.912V118.984C87.0328 117.501 86.9901 116.659 86.9048 116.456C86.8301 116.253 86.7608 116.093 86.6968 115.976C86.6328 115.859 86.5368 115.779 86.4088 115.736C86.1741 115.672 85.8648 115.64 85.4808 115.64L85.4488 115.464C86.3554 115.336 87.2568 115.272 88.1528 115.272V117.624C88.2701 116.867 88.5314 116.275 88.9368 115.848C89.3528 115.411 89.8861 115.192 90.5368 115.192ZM93.5149 113.352C93.3335 113.171 93.2429 112.957 93.2429 112.712C93.2429 112.467 93.3335 112.253 93.5149 112.072C93.6962 111.891 93.9095 111.8 94.1549 111.8C94.4002 111.8 94.6135 111.891 94.7949 112.072C94.9762 112.253 95.0669 112.467 95.0669 112.712C95.0669 112.957 94.9762 113.171 94.7949 113.352C94.6135 113.533 94.4002 113.624 94.1549 113.624C93.9095 113.624 93.6962 113.533 93.5149 113.352ZM94.7629 115.272V120.36C94.7629 121.48 94.8269 122.168 94.9549 122.424C95.0935 122.68 95.4775 122.808 96.1069 122.808L96.1389 123H92.2349L92.2669 122.808C92.9069 122.808 93.2962 122.68 93.4349 122.424C93.5735 122.157 93.6429 121.459 93.6429 120.328V119.208C93.6429 117.971 93.6055 117.155 93.5309 116.76C93.4669 116.355 93.3709 116.093 93.2429 115.976C92.9869 115.741 92.5922 115.624 92.0589 115.624L92.0269 115.448C92.9549 115.331 93.8669 115.272 94.7629 115.272ZM102.929 115.096L102.833 114.28C102.833 114.077 102.892 113.917 103.009 113.8C103.137 113.683 103.281 113.624 103.441 113.624C103.601 113.624 103.74 113.683 103.857 113.8C103.985 113.917 104.049 114.077 104.049 114.28C104.049 114.877 103.606 115.523 102.721 116.216C103.19 116.739 103.425 117.368 103.425 118.104C103.425 118.829 103.137 119.469 102.561 120.024C101.985 120.579 101.281 120.856 100.449 120.856C99.8623 120.856 99.3397 120.717 98.881 120.44C98.433 120.845 98.209 121.277 98.209 121.736C98.209 122.045 98.321 122.296 98.545 122.488C98.7797 122.669 99.1317 122.76 99.601 122.76C100.081 122.76 100.481 122.765 100.801 122.776C101.121 122.787 101.5 122.808 101.937 122.84C102.374 122.872 102.71 122.931 102.945 123.016C103.19 123.101 103.436 123.213 103.681 123.352C104.129 123.608 104.353 124.051 104.353 124.68C104.353 125.448 103.953 126.115 103.153 126.68C102.364 127.256 101.34 127.544 100.081 127.544C99.121 127.544 98.3423 127.363 97.745 127C97.1477 126.648 96.849 126.179 96.849 125.592C96.849 125.176 96.9877 124.776 97.265 124.392C97.5423 124.019 97.8997 123.763 98.337 123.624C97.7183 123.379 97.409 122.899 97.409 122.184C97.409 121.843 97.521 121.496 97.745 121.144C97.969 120.781 98.257 120.488 98.609 120.264C97.8517 119.688 97.473 118.973 97.473 118.12C97.473 117.256 97.761 116.568 98.337 116.056C98.913 115.533 99.6117 115.272 100.433 115.272C101.265 115.272 101.964 115.523 102.529 116.024C102.796 115.757 102.929 115.448 102.929 115.096ZM97.969 125.432C97.969 125.965 98.177 126.392 98.593 126.712C99.0197 127.032 99.601 127.192 100.337 127.192C101.084 127.192 101.75 126.984 102.337 126.568C102.934 126.152 103.233 125.656 103.233 125.08C103.233 124.515 102.934 124.147 102.337 123.976C101.75 123.805 100.572 123.72 98.801 123.72C98.5983 123.837 98.4063 124.056 98.225 124.376C98.0543 124.707 97.969 125.059 97.969 125.432ZM99.105 119.768C99.4143 120.216 99.8623 120.44 100.449 120.44C101.036 120.44 101.484 120.216 101.793 119.768C102.102 119.309 102.257 118.728 102.257 118.024C102.257 117.309 102.102 116.739 101.793 116.312C101.484 115.885 101.036 115.672 100.449 115.672C99.8623 115.672 99.4143 115.885 99.105 116.312C98.7957 116.739 98.641 117.309 98.641 118.024C98.641 118.728 98.7957 119.309 99.105 119.768ZM107.73 111.224V118.136C107.826 117.368 108.092 116.701 108.53 116.136C108.967 115.56 109.548 115.272 110.274 115.272C111.906 115.272 112.722 116.125 112.722 117.832V120.36C112.722 121.469 112.791 122.157 112.93 122.424C113.079 122.68 113.463 122.808 114.082 122.808L114.114 123H110.226L110.258 122.808C110.898 122.808 111.282 122.675 111.41 122.408C111.538 122.141 111.602 121.411 111.602 120.216V117.992C111.602 117.256 111.484 116.701 111.25 116.328C111.026 115.955 110.663 115.768 110.162 115.768C109.671 115.768 109.26 115.939 108.93 116.28C108.599 116.611 108.354 117.032 108.194 117.544C107.884 118.536 107.73 119.533 107.73 120.536C107.73 121.539 107.794 122.168 107.922 122.424C108.06 122.68 108.444 122.808 109.074 122.808L109.106 123H105.202L105.234 122.808C105.874 122.808 106.263 122.68 106.402 122.424C106.54 122.157 106.61 121.459 106.61 120.328V115C106.61 113.4 106.535 112.44 106.386 112.12C106.322 111.992 106.22 111.88 106.082 111.784C105.954 111.688 105.81 111.629 105.65 111.608C105.5 111.587 105.292 111.576 105.026 111.576L104.994 111.4C105.922 111.283 106.834 111.224 107.73 111.224ZM117.41 115.432H119.378V115.784H117.41V121.88C117.41 122.104 117.463 122.285 117.57 122.424C117.676 122.552 117.815 122.616 117.986 122.616C118.37 122.616 118.823 122.504 119.346 122.28L119.378 122.456C118.631 122.925 117.97 123.16 117.394 123.16C117.02 123.16 116.743 123.069 116.562 122.888C116.38 122.707 116.29 122.392 116.29 121.944V115.784H115.33V115.432C115.906 115.432 116.306 115.272 116.53 114.952C116.764 114.621 116.94 114.136 117.058 113.496L117.41 113.464V115.432ZM131.111 120.712H131.303V123H124.887V122.792C126.412 121.288 127.623 119.843 128.519 118.456C129.415 117.069 129.863 115.912 129.863 114.984C129.863 114.387 129.708 113.901 129.399 113.528C129.09 113.155 128.647 112.968 128.071 112.968C127.708 112.968 127.394 113.053 127.127 113.224C126.86 113.395 126.663 113.581 126.535 113.784C126.407 113.987 126.263 114.173 126.103 114.344C125.954 114.515 125.799 114.6 125.639 114.6C125.479 114.6 125.346 114.552 125.239 114.456C125.143 114.349 125.095 114.221 125.095 114.072C125.095 113.667 125.388 113.315 125.975 113.016C126.562 112.707 127.266 112.552 128.087 112.552C128.908 112.552 129.607 112.749 130.183 113.144C130.759 113.539 131.047 114.173 131.047 115.048C131.047 116.051 130.54 117.187 129.527 118.456C128.983 119.128 128.466 119.731 127.975 120.264C127.484 120.787 126.802 121.485 125.927 122.36C127.655 122.36 128.951 122.248 129.815 122.024C130.679 121.8 131.111 121.363 131.111 120.712ZM133.236 117.896C133.236 116.232 133.577 114.925 134.26 113.976C134.953 113.027 135.839 112.552 136.916 112.552C137.993 112.552 138.868 113.027 139.54 113.976C140.223 114.925 140.564 116.232 140.564 117.896C140.564 119.549 140.228 120.84 139.556 121.768C138.884 122.696 138.004 123.16 136.916 123.16C135.839 123.16 134.953 122.696 134.26 121.768C133.577 120.84 133.236 119.549 133.236 117.896ZM134.388 117.88C134.388 119.309 134.628 120.472 135.108 121.368C135.599 122.253 136.201 122.696 136.916 122.696C137.641 122.696 138.239 122.253 138.708 121.368C139.177 120.483 139.412 119.325 139.412 117.896C139.412 116.456 139.177 115.277 138.708 114.36C138.239 113.432 137.641 112.968 136.916 112.968C136.201 112.968 135.599 113.432 135.108 114.36C134.628 115.277 134.388 116.451 134.388 117.88ZM148.705 120.712H148.897V123H142.481V122.792C144.006 121.288 145.217 119.843 146.113 118.456C147.009 117.069 147.457 115.912 147.457 114.984C147.457 114.387 147.302 113.901 146.993 113.528C146.684 113.155 146.241 112.968 145.665 112.968C145.302 112.968 144.988 113.053 144.721 113.224C144.454 113.395 144.257 113.581 144.129 113.784C144.001 113.987 143.857 114.173 143.697 114.344C143.548 114.515 143.393 114.6 143.233 114.6C143.073 114.6 142.94 114.552 142.833 114.456C142.737 114.349 142.689 114.221 142.689 114.072C142.689 113.667 142.982 113.315 143.569 113.016C144.156 112.707 144.86 112.552 145.681 112.552C146.502 112.552 147.201 112.749 147.777 113.144C148.353 113.539 148.641 114.173 148.641 115.048C148.641 116.051 148.134 117.187 147.121 118.456C146.577 119.128 146.06 119.731 145.569 120.264C145.078 120.787 144.396 121.485 143.521 122.36C145.249 122.36 146.545 122.248 147.409 122.024C148.273 121.8 148.705 121.363 148.705 120.712ZM155.406 119.384C155.406 120.877 155.47 121.763 155.598 122.04C155.662 122.179 155.731 122.312 155.806 122.44C155.891 122.557 156.008 122.637 156.158 122.68C156.456 122.765 156.835 122.808 157.294 122.808L157.326 123H152.366L152.398 122.808C152.718 122.808 152.968 122.797 153.15 122.776C153.342 122.755 153.512 122.696 153.662 122.6C153.822 122.504 153.934 122.397 153.998 122.28C154.072 122.152 154.136 121.939 154.19 121.64C154.254 121.213 154.286 120.461 154.286 119.384V115.16C154.286 114.435 154.051 114.072 153.582 114.072C153.24 114.072 152.638 114.264 151.774 114.648L151.646 114.344C153.491 113.512 154.686 112.909 155.23 112.536L155.406 112.616V119.384Z" fill="#FFFCF5"/>
</svg>
