<svg width="33" height="29" viewBox="0 0 33 29" fill="none" xmlns="http://www.w3.org/2000/svg">
<path fill-rule="evenodd" clip-rule="evenodd" d="M29.5007 7.5363C29.5212 7.83999 29.5212 8.14375 29.5212 8.44744C29.5212 17.7104 22.8789 28.3835 10.7388 28.3835C6.99861 28.3835 3.52419 27.2337 0.601562 25.238C1.13297 25.303 1.64386 25.3247 2.19571 25.3247C5.28178 25.3247 8.12269 24.2184 10.3913 22.3311C7.48912 22.266 5.057 20.2485 4.21904 17.4718C4.62781 17.5368 5.03656 17.5802 5.46579 17.5802C6.05847 17.5802 6.65122 17.4934 7.203 17.3416C4.17821 16.6908 1.90953 13.8707 1.90953 10.4649V10.3782C2.78833 10.8988 3.81031 11.2242 4.89344 11.2675C3.11534 10.0093 1.95042 7.86169 1.95042 5.43204C1.95042 4.13048 2.27737 2.93735 2.84967 1.89607C6.0993 6.14793 10.984 8.92461 16.4613 9.22836C16.3591 8.70773 16.2978 8.16545 16.2978 7.62311C16.2978 3.76168 19.2408 0.616211 22.8992 0.616211C24.7999 0.616211 26.5167 1.46224 27.7226 2.82891C29.2145 2.52522 30.6451 1.93948 31.9123 1.13685C31.4217 2.76387 30.3794 4.13054 29.0101 4.99821C30.3386 4.84643 31.6262 4.45587 32.8116 3.91359C31.9124 5.3019 30.7883 6.53836 29.5007 7.5363Z" fill="#FFFCF5"/>
</svg>
